sfk_cyclingleg_states
version=1
nRows=5
nColumns=53
inDegrees=yes

# SIMM Motion File Header:
name sfk_cyclingleg_states
datacolumns 53
datarows 5
otherdata 1
range 0.87171867 0.87252195
endheader
time	/jointset/bb/crank_angle/value	/jointset/bb/crank_angle/speed	/jointset/spindle/pedal_angle_r/value	/jointset/spindle/pedal_angle_r/speed	/jointset/ground_pelvis/pelvis_tilt/value	/jointset/ground_pelvis/pelvis_tilt/speed	/jointset/ground_pelvis/pelvis_list/value	/jointset/ground_pelvis/pelvis_list/speed	/jointset/ground_pelvis/pelvis_rotation/value	/jointset/ground_pelvis/pelvis_rotation/speed	/jointset/ground_pelvis/pelvis_tx/value	/jointset/ground_pelvis/pelvis_tx/speed	/jointset/ground_pelvis/pelvis_ty/value	/jointset/ground_pelvis/pelvis_ty/speed	/jointset/ground_pelvis/pelvis_tz/value	/jointset/ground_pelvis/pelvis_tz/speed	/jointset/hip_r/hip_angle_r/value	/jointset/hip_r/hip_angle_r/speed	/jointset/hip_r/hip_adduction_r/value	/jointset/hip_r/hip_adduction_r/speed	/jointset/hip_r/hip_rotation_r/value	/jointset/hip_r/hip_rotation_r/speed	/jointset/knee_r/knee_angle_r/value	/jointset/knee_r/knee_angle_r/speed	/jointset/knee_r/tib_tx_r/value	/jointset/knee_r/tib_tx_r/speed	/jointset/knee_r/tib_ty_r/value	/jointset/knee_r/tib_ty_r/speed	/jointset/tib_pat_r/pat_angle_r/value	/jointset/tib_pat_r/pat_angle_r/speed	/jointset/tib_pat_r/pat_tx_r/value	/jointset/tib_pat_r/pat_tx_r/speed	/jointset/tib_pat_r/pat_ty_r/value	/jointset/tib_pat_r/pat_ty_r/speed	/jointset/ankle_r/ankle_angle_r/value	/jointset/ankle_r/ankle_angle_r/speed	/jointset/subtalar_r/subtalar_angle_r/value	/jointset/subtalar_r/subtalar_angle_r/speed	/jointset/mtp_r/mtp_angle_r/value	/jointset/mtp_r/mtp_angle_r/speed	/forceset/bifemlh_r/activation	/forceset/bifemlh_r/fiber_length	/forceset/bifemsh_r/activation	/forceset/bifemsh_r/fiber_length	/forceset/glut_max2_r/activation	/forceset/glut_max2_r/fiber_length	/forceset/vas_int_r/activation	/forceset/vas_int_r/fiber_length	/forceset/med_gas_r/activation	/forceset/med_gas_r/fiber_length	/forceset/tib_ant_r/activation	/forceset/tib_ant_r/fiber_length
      0.87171867	   -428.68069087	   -480.13863232	    430.84352763	    559.32758095	     -0.00000000	     -0.00000000	      0.00000000	      0.00000000	      0.00000000	      0.00000000	     -0.00000000	     -0.00000000	      0.00000000	     -0.00000000	     -0.00000000	     -0.00000000	     72.82415777	   -154.97800510	      4.27423092	      1.81592309	     -1.81480220	     21.24844575	    -93.11671668	    265.96742015	      0.00336845	      0.04202376	     -0.48701729	      0.09225678	     17.57816314	     -1.03383838	      0.03154997	      0.10478628	     -0.02282476	      0.01160324	     22.99063360	    -33.20446181	      0.00000000	     -0.00000000	      0.00000000	     -0.00000000	     -0.08679166	      0.13609258	     -0.08679166	      0.15048396	     -0.08679166	      0.15166961	     -0.08679166	      0.14998580	     -0.08679166	      0.13477023	     -0.08679166	      0.11566100
      0.87196762	   -428.80021988	   -480.13863232	    430.98276117	    559.25278362	     -0.00000000	     -0.00000000	      0.00000000	     -0.00000000	      0.00000000	      0.00000000	     -0.00000000	     -0.00000000	      0.00000000	     -0.00000000	     -0.00000000	     -0.00000000	     72.78554273	   -155.24903252	      4.27468262	      1.81301366	     -1.80951264	     21.24702479	    -93.05049274	    266.06517518	      0.00337889	      0.04190807	     -0.48699432	      0.09229258	     17.57790599	     -1.03205745	      0.03157605	      0.10475801	     -0.02282188	      0.01157025	     22.98237992	    -33.10425373	      0.00000000	     -0.00000000	      0.00000000	     -0.00000000	     -0.08682371	      0.13608009	     -0.08682371	      0.15050719	     -0.08682371	      0.15165113	     -0.08682371	      0.14995018	     -0.08682371	      0.13478642	     -0.08682371	      0.11566834
      0.87233925	   -428.97865145	   -480.13863232	    431.19057283	    559.14134636	     -0.00000000	     -0.00000000	      0.00000000	      0.00000000	      0.00000000	      0.00000000	     -0.00000000	     -0.00000000	      0.00000000	     -0.00000000	     -0.00000000	     -0.00000000	     72.72777332	   -155.65225424	      4.27535558	      1.80865115	     -1.80161711	     21.24486296	    -92.95158932	    266.20983749	      0.00339443	      0.04173504	     -0.48696001	      0.09234541	     17.57752295	     -1.02933730	      0.03161497	      0.10471529	     -0.02281758	      0.01152077	     22.97010537	    -32.95453949	      0.00000000	     -0.00000000	      0.00000000	     -0.00000000	     -0.08687156	      0.13606140	     -0.08687156	      0.15054195	     -0.08687156	      0.15162346	     -0.08687156	      0.14989694	     -0.08687156	      0.13489291	     -0.08687156	      0.11567925
      0.87238525	   -429.00073995	   -480.13863232	    431.21629549	    559.12756944	     -0.00000000	     -0.00000000	      0.00000000	     -0.00000000	      0.00000000	      0.00000000	     -0.00000000	     -0.00000000	      0.00000000	     -0.00000000	     -0.00000000	     -0.00000000	     72.72061148	   -155.70205639	      4.27543877	      1.80810950	     -1.80063976	     21.24459197	    -92.93934208	    266.22764021	      0.00339635	      0.04171359	     -0.48695576	      0.09235190	     17.57747561	     -1.02899543	      0.03161979	      0.10470995	     -0.02281705	      0.01151462	     22.96858974	    -32.93599569	      0.00000000	     -0.00000000	      0.00000000	     -0.00000000	     -0.08687748	      0.13605909	     -0.08687748	      0.15054627	     -0.08687748	      0.15162003	     -0.08687748	      0.14989035	     -0.08687748	      0.13486966	     -0.08687748	      0.11568059
      0.87252195	   -429.06637337	   -480.13863232	    431.29272365	    559.08665646	     -0.00000000	     -0.00000000	      0.00000000	     -0.00000000	      0.00000000	      0.00000000	     -0.00000000	     -0.00000000	      0.00000000	     -0.00000000	     -0.00000000	     -0.00000000	     72.69931740	   -155.84988986	      4.27568582	      1.80649796	     -1.79773575	     21.24378241	    -92.90294600	    266.28040193	      0.00340205	      0.04164982	     -0.48694313	      0.09237111	     17.57733502	     -1.02797291	      0.03163410	      0.10469405	     -0.02281548	      0.01149634	     22.96409126	    -32.88088167	      0.00000000	     -0.00000000	      0.00000000	     -0.00000000	     -0.08689508	      0.13605220	     -0.08689508	      0.15055909	     -0.08689508	      0.15160982	     -0.08689508	      0.14987074	     -0.08689508	      0.13485998	     -0.08689508	      0.11568459
